<?xml version="1.0" encoding="UTF-8" standalone="no"?>
<!-- Created with Inkscape (http://www.inkscape.org/) -->

<svg
   xmlns:dc="http://purl.org/dc/elements/1.1/"
   xmlns:cc="http://creativecommons.org/ns#"
   xmlns:rdf="http://www.w3.org/1999/02/22-rdf-syntax-ns#"
   xmlns:svg="http://www.w3.org/2000/svg"
   xmlns="http://www.w3.org/2000/svg"
   xmlns:sodipodi="http://sodipodi.sourceforge.net/DTD/sodipodi-0.dtd"
   xmlns:inkscape="http://www.inkscape.org/namespaces/inkscape"
   width="1000"
   height="1000"
   id="svg2"
   version="1.1"
   inkscape:version="0.91 r13725"
   sodipodi:docname="asb_sticker.svg"
   inkscape:export-filename="I:\Aditya'sStorage_Sync_01Jan13\Career\Art\Visual Art\Project Files\Apostilb_F1.png"
   inkscape:export-xdpi="300.06"
   inkscape:export-ydpi="300.06">
  <defs
     id="defs4" />
  <sodipodi:namedview
     id="base"
     pagecolor="#ffffff"
     bordercolor="#000000"
     borderopacity="1"
     inkscape:pageopacity="0"
     inkscape:pageshadow="2"
     inkscape:zoom="0.70710678"
     inkscape:cx="374.23182"
     inkscape:cy="477.53866"
     inkscape:document-units="px"
     inkscape:current-layer="layer1"
     showgrid="false"
     borderlayer="false"
     inkscape:showpageshadow="true"
     showborder="true"
     objecttolerance="5"
     inkscape:window-width="1916"
     inkscape:window-height="1155"
     inkscape:window-x="4"
     inkscape:window-y="23"
     inkscape:window-maximized="1"
     gridtolerance="50"
     guidetolerance="1"
     showguides="false"
     inkscape:guide-bbox="true">
    <inkscape:grid
       type="xygrid"
       id="grid3422" />
    <sodipodi:guide
       position="919.23882,1036.6185"
       orientation="1,0"
       id="guide3605" />
    <sodipodi:guide
       position="860,80"
       orientation="0,1"
       id="guide3609" />
    <sodipodi:guide
       position="79.19596,1049.3465"
       orientation="1,0"
       id="guide3613" />
    <sodipodi:guide
       position="500.6316,893.78297"
       orientation="1,0"
       id="guide4178" />
  </sodipodi:namedview>
  <metadata
     id="metadata7">
    <rdf:RDF>
      <cc:Work
         rdf:about="">
        <dc:format>image/svg+xml</dc:format>
        <dc:type
           rdf:resource="http://purl.org/dc/dcmitype/StillImage" />
        <dc:title />
      </cc:Work>
    </rdf:RDF>
  </metadata>
  <g
     inkscape:label="Layer 1"
     inkscape:groupmode="layer"
     id="layer1"
     transform="translate(0,-52.36218)">
    <rect
       style="color:#000000;display:inline;overflow:visible;visibility:visible;fill:#333333;fill-opacity:1;fill-rule:nonzero;stroke:none;stroke-width:0.5;marker:none;enable-background:accumulate"
       id="rect3865"
       width="1003.8032"
       height="1001.8032"
       x="-3.5857975"
       y="50.559006"
       rx="0"
       ry="0" />
    <g
       id="g3046"
       transform="matrix(3.3816087,0,0,3.3748711,-152.60056,-2052.6841)">
      <rect
         ry="7.311954"
         y="629.1438"
         x="50.003078"
         height="284.96823"
         width="284.9682"
         id="rect3005-8"
         style="color:#000000;display:inline;overflow:visible;visibility:visible;fill:#ffffff;fill-opacity:1;fill-rule:nonzero;stroke:none;stroke-width:0.5;marker:none;enable-background:accumulate" />
      <rect
         ry="6.8944416"
         y="635.13812"
         x="55.857719"
         height="273.32782"
         width="273.32782"
         id="rect3005-4"
         style="color:#000000;display:inline;overflow:visible;visibility:visible;fill:#333333;fill-opacity:1;fill-rule:nonzero;stroke:none;stroke-width:0.5;marker:none;enable-background:accumulate" />
    </g>
    <g
       id="g3582"
       transform="matrix(1.6493593,0,0,1.6493593,-415.7552,-201.4509)">
      <g
         transform="matrix(1.6402911,0,0,1.6402911,240.21697,-862.17315)"
         style="stroke:none"
         id="g6594">
        <path
           sodipodi:type="star"
           style="color:#000000;display:inline;overflow:visible;visibility:visible;fill:#ffffff;fill-opacity:1;fill-rule:nonzero;stroke:none;stroke-width:1.39999998;marker:none;enable-background:accumulate"
           id="path6588"
           sodipodi:sides="20"
           sodipodi:cx="192.43407"
           sodipodi:cy="199.47961"
           sodipodi:r1="107.39138"
           sodipodi:r2="44.160458"
           sodipodi:arg1="0.94234583"
           sodipodi:arg2="1.0994255"
           inkscape:flatsided="false"
           inkscape:rounded="0.18"
           inkscape:randomized="0"
           d="m 255.5686,286.35274 c -9.34048,6.78814 -32.79353,-52.77191 -43.08091,-47.52852 -10.28739,5.2434 24.1266,59.21675 13.14562,62.78629 -10.98098,3.56953 -14.88109,-60.32283 -26.28527,-58.51504 -11.40419,1.80779 4.64678,63.774 -6.8998,63.77552 -11.54658,0.002 4.48803,-61.96892 -6.91664,-63.7737 -11.40466,-1.80477 -15.28789,62.08862 -26.26982,58.52197 -10.98192,-3.56664 23.41782,-57.54906 13.12905,-62.78975 -10.28877,-5.24068 -33.72609,54.32556 -43.06837,47.53989 -9.34227,-6.78568 40.05531,-47.49592 31.88957,-55.65951 -8.16575,-8.16359 -48.86294,41.24474 -55.65108,31.90426 -6.788147,-9.34049 52.7719,-32.79353 47.52851,-43.08092 -5.2434,-10.28738 -59.216746,24.1266 -62.786285,13.14562 -3.569539,-10.98098 60.322825,-14.88108 58.515035,-26.28526 -1.80779,-11.40419 -63.773999,4.64678 -63.775523,-6.8998 -0.0015,-11.54659 61.968923,4.48802 63.773703,-6.91664 1.80478,-11.40466 -62.088615,-15.2879 -58.521974,-26.26982 3.566641,-10.98192 57.549074,23.41782 62.789754,13.12905 5.24068,-10.28877 -54.325562,-33.72609 -47.53988,-43.06837 6.78567,-9.34228 47.49591,40.05531 55.6595,31.88957 8.16359,-8.16575 -41.24474,-48.86294 -31.90426,-55.65109 9.34049,-6.78814 32.79353,52.77191 43.08092,47.52851 10.28739,-5.24339 -24.1266,-59.21674 -13.14562,-62.786277 10.98098,-3.569539 14.88108,60.322827 26.28526,58.515037 11.40419,-1.80779 -4.64678,-63.774002 6.8998,-63.775525 11.54659,-0.0015 -4.48802,61.968925 6.91664,63.773695 11.40466,1.80478 15.2879,-62.088608 26.26982,-58.521966 10.98192,3.566636 -23.41782,57.549066 -13.12905,62.789746 10.28878,5.24068 33.72609,-54.32555 43.06837,-47.53988 9.34228,6.78568 -40.05531,47.49592 -31.88956,55.65951 8.16574,8.16358 48.86293,-41.24475 55.65108,-31.90426 6.78814,9.34049 -52.77191,32.79353 -47.52851,43.08092 5.24339,10.28738 59.21674,-24.12661 62.78628,-13.14563 3.56954,10.98099 -60.32282,14.88109 -58.51504,26.28527 1.80779,11.40419 63.774,-4.64678 63.77553,6.8998 0.002,11.54658 -61.96892,-4.48803 -63.7737,6.91664 -1.80478,11.40466 62.08861,15.28789 58.52197,26.26982 -3.56664,10.98192 -57.54907,-23.41782 -62.78975,-13.12905 -5.24068,10.28877 54.32556,33.72609 47.53988,43.06837 -6.78568,9.34227 -47.49592,-40.05531 -55.6595,-31.88957 -8.16359,8.16575 41.24474,48.86294 31.90425,55.65109 z"
           transform="translate(0,552.36218)" />
        <path
           sodipodi:type="star"
           style="color:#000000;display:inline;overflow:visible;visibility:visible;fill:#333333;fill-opacity:1;fill-rule:nonzero;stroke:none;stroke-width:1.39999998;marker:none;enable-background:accumulate"
           id="path6592"
           sodipodi:sides="20"
           sodipodi:cx="192.5"
           sodipodi:cy="199.47961"
           sodipodi:r1="86.634026"
           sodipodi:r2="86.634026"
           sodipodi:arg1="0.9349002"
           sodipodi:arg2="1.0919798"
           inkscape:flatsided="false"
           inkscape:rounded="0.18"
           inkscape:randomized="0"
           d="m 243.95184,269.18014 c -1.96871,1.45327 -9.36521,6.0633 -11.53702,7.19071 -2.17182,1.1274 -10.19842,4.52361 -12.51986,5.29739 -2.32144,0.77378 -10.78051,2.87254 -13.19441,3.27364 -2.41391,0.4011 -11.09715,1.15073 -13.54408,1.16927 -2.44693,0.0185 -11.14053,-0.59941 -13.56024,-0.96388 -2.4197,-0.36447 -10.90961,-2.3348 -13.24251,-3.07331 -2.3329,-0.7385 -10.41004,-4.01268 -12.59869,-5.10705 -2.18865,-1.09436 -9.65417,-5.59178 -11.64467,-7.01504 -1.99051,-1.42327 -8.66056,-7.03318 -10.40391,-8.75031 -1.74335,-1.71713 -7.4537,-8.3014 -8.90697,-10.27011 -1.45327,-1.96871 -6.06331,-9.3652 -7.19071,-11.53702 -1.12741,-2.17181 -4.52362,-10.19842 -5.2974,-12.51986 -0.77378,-2.32144 -2.87254,-10.7805 -3.27364,-13.19441 -0.40109,-2.4139 -1.15073,-11.09714 -1.16927,-13.54407 -0.0185,-2.44694 0.59941,-11.14054 0.96388,-13.56024 0.36448,-2.41971 2.3348,-10.90961 3.07331,-13.24251 0.73851,-2.3329 4.01269,-10.41005 5.10705,-12.5987 1.09436,-2.18865 5.59178,-9.65416 7.01505,-11.64467 1.42327,-1.99051 7.03317,-8.66055 8.7503,-10.40391 1.71714,-1.74335 8.3014,-7.4537 10.27011,-8.90697 1.96871,-1.45327 9.36521,-6.0633 11.53702,-7.19071 2.17182,-1.1274 10.19842,-4.52362 12.51986,-5.29739 2.32144,-0.77378 10.78051,-2.87254 13.19441,-3.27364 2.41391,-0.4011 11.09715,-1.15073 13.54408,-1.16927 2.44693,-0.0185 11.14053,0.59941 13.56024,0.96388 2.4197,0.36447 10.90961,2.3348 13.24251,3.0733 2.3329,0.73851 10.41004,4.01269 12.59869,5.10706 2.18865,1.09436 9.65417,5.59177 11.64467,7.01504 1.99051,1.42327 8.66056,7.03318 10.40391,8.75031 1.74335,1.71713 7.4537,8.3014 8.90697,10.27011 1.45327,1.96871 6.06331,9.3652 7.19071,11.53702 1.12741,2.17181 4.52362,10.19841 5.2974,12.51986 0.77378,2.32144 2.87254,10.7805 3.27364,13.1944 0.40109,2.41391 1.15073,11.09715 1.16927,13.54408 0.0185,2.44693 -0.59941,11.14053 -0.96388,13.56024 -0.36448,2.41971 -2.3348,10.90961 -3.07331,13.24251 -0.73851,2.3329 -4.01269,10.41005 -5.10705,12.5987 -1.09436,2.18865 -5.59178,9.65416 -7.01505,11.64467 -1.42327,1.99051 -7.03317,8.66055 -8.7503,10.40391 -1.71714,1.74335 -8.3014,7.4537 -10.27011,8.90697 z"
           transform="translate(0,552.36218)" />
      </g>
      <rect
         ry="4.8779645"
         y="492.01263"
         x="492.1188"
         height="83.186195"
         width="131.2233"
         id="rect6598"
         style="color:#000000;display:inline;overflow:visible;visibility:visible;fill:#333333;fill-opacity:1;fill-rule:nonzero;stroke:none;stroke-width:1.39999998;marker:none;enable-background:accumulate" />
      <g
         transform="matrix(1.8211066,0,0,1.8211066,213.68711,-979.0516)"
         id="g4069">
        <path
           id="path3925"
           d="m 250.71429,187.5 c 0,34.5178 -28.1421,62.5 -62.85714,62.5 C 153.14211,250 125,222.0178 125,187.5 c 0,-34.5178 28.14211,-62.5 62.85715,-62.5 34.71504,0 62.85714,27.9822 62.85714,62.5 z"
           style="color:#000000;display:inline;overflow:visible;visibility:visible;fill:#ffffff;fill-opacity:1;fill-rule:nonzero;stroke:none;stroke-width:0.5;marker:none;enable-background:accumulate"
           transform="translate(0,552.36218)"
           inkscape:connector-curvature="0" />
        <path
           sodipodi:nodetypes="sssssssss"
           id="rect3939"
           d="m 169.28571,214.28572 36.42858,0 c 7.91428,0 22.11684,16.74104 16.21521,23.32561 -3.512,3.91842 -1.9295,15.28192 -1.9295,15.28192 -0.11718,8.79354 -6.37143,7.82105 -14.28571,7.82105 l -36.42858,0 c -7.91428,0 -13.93175,0.0627 -14.05832,-8.04844 0,0 2.53214,-11.6492 -0.87056,-14.57215 -7.02047,-6.03065 7.0146,-23.80799 14.92888,-23.80799 z"
           style="color:#000000;display:inline;overflow:visible;visibility:visible;fill:#ffffff;fill-opacity:1;fill-rule:nonzero;stroke:none;stroke-width:0.5;marker:none;enable-background:accumulate"
           transform="translate(0,552.36218)"
           inkscape:connector-curvature="0" />
      </g>
      <g
         transform="matrix(1.6397856,0,0,1.6397856,246.79452,-858.58269)"
         id="g3190">
        <g
           id="g4062"
           transform="matrix(1.0156502,0,0,1.1766967,-1.7496004,-130.23122)">
          <path
             inkscape:connector-curvature="0"
             style="color:#000000;display:inline;overflow:visible;visibility:visible;fill:#ffffff;fill-opacity:1;fill-rule:nonzero;stroke:none;stroke-width:0.5;marker:none;enable-background:accumulate"
             d="m 160.95196,824.57275 53.09608,0 c 3.29739,0 5.95196,2.11993 5.95196,4.75321 0,2.63327 -2.65457,4.7532 -5.95196,4.7532 l -53.09608,0 c -3.29739,0 -5.95196,-2.11993 -5.95196,-4.7532 0,-2.63328 2.65457,-4.75321 5.95196,-4.75321 z"
             id="rect3941" />
          <path
             sodipodi:nodetypes="sssssss"
             inkscape:connector-curvature="0"
             style="color:#000000;display:inline;overflow:visible;visibility:visible;fill:#ffffff;fill-opacity:1;fill-rule:nonzero;stroke:none;stroke-width:0.5;marker:none;enable-background:accumulate"
             d="m 160.4596,831.07396 53.76815,-0.55942 c 3.18845,-0.0332 4.70082,4.39628 4.70082,7.02956 0,2.63327 -5.20444,11.71567 -8.39304,11.73401 l -45.37663,0.26091 c -3.18859,0.0183 -9.08747,-9.36165 -9.08747,-11.99492 0,-2.63328 1.19973,-6.43697 4.38817,-6.47014 z"
             id="rect3941-7" />
          <path
             inkscape:connector-curvature="0"
             style="color:#000000;display:inline;overflow:visible;visibility:visible;fill:#ffffff;fill-opacity:1;fill-rule:nonzero;stroke:none;stroke-width:0.5;marker:none;enable-background:accumulate"
             d="m 163.17269,841.18042 49.01177,0 c 3.04374,0 5.49411,2.11993 5.49411,4.7532 0,2.63328 -2.45037,4.7532 -5.49411,4.7532 l -49.01177,0 c -3.04374,0 -5.49412,-2.11992 -5.49412,-4.7532 0,-2.63327 2.45038,-4.7532 5.49412,-4.7532 z"
             id="rect3941-7-5" />
          <path
             sodipodi:nodetypes="sssss"
             inkscape:connector-curvature="0"
             transform="matrix(0.50311416,0,0,1,93.928569,559.21194)"
             style="color:#000000;display:inline;overflow:visible;visibility:visible;fill:#ffffff;fill-opacity:1;fill-rule:nonzero;stroke:none;stroke-width:0.5;marker:none;enable-background:accumulate"
             d="m 211.50691,297.33813 c -2.10236,4.29749 -14.30769,7.95496 -24.62869,7.95496 -10.321,0 -21.03691,-4.15793 -23.5803,-8.41023 -2.44624,-4.08988 13.2593,-7.49968 23.5803,-7.49968 10.321,0 27.07493,2.95453 24.62869,7.95495 z"
             id="path4055" />
          <path
             sodipodi:nodetypes="sssssssss"
             inkscape:connector-curvature="0"
             style="color:#000000;display:inline;overflow:visible;visibility:visible;fill:#ffffff;fill-opacity:1;fill-rule:nonzero;stroke:none;stroke-width:0.5;marker:none;enable-background:accumulate"
             d="m 173.97162,842.59064 28.24243,0 c 3.91775,0 11.98111,1.16873 9.88487,4.64365 l -2.81312,4.66326 c -2.09624,3.47491 -3.154,7.07175 -7.07175,7.07175 l -28.24243,0 c -3.91775,0 -5.20049,-3.50244 -7.07175,-7.07175 l -2.28566,-4.35975 c -1.87126,-3.56932 5.43966,-4.94716 9.35741,-4.94716 z"
             id="rect4057" />
        </g>
      </g>
      <g
         transform="matrix(1.8295618,0,0,1.8295618,213.63781,-994.3452)"
         id="g4509">
        <path
           style="color:#000000;font-style:normal;font-variant:normal;font-weight:normal;font-stretch:normal;font-size:medium;line-height:normal;font-family:Sans;-inkscape-font-specification:Sans;text-indent:0;text-align:start;text-decoration:none;text-decoration-line:none;letter-spacing:normal;word-spacing:normal;text-transform:none;direction:ltr;block-progression:tb;writing-mode:lr-tb;baseline-shift:baseline;text-anchor:start;display:inline;overflow:visible;visibility:visible;fill:#424242;fill-opacity:1;stroke:none;stroke-width:5;marker:none;enable-background:accumulate"
           d="m 205.80358,731.20147 0,-13.125 c 0,0 0.0325,-4.43497 -2.21875,-8.9375 -2.25127,-4.50253 -7.26042,-9.1875 -15.90625,-9.1875 l -1e-5,0 c -8.64583,0 -13.65498,4.68497 -15.90625,9.1875 -2.25127,4.50253 -2.21875,8.9375 -2.21875,8.9375 0,0 0.13393,7.85689 0.13393,11.78571 0,3.83929 4.77678,3.83929 4.77678,0 0,-3.92868 0.0893,-11.78571 0.0893,-11.78571 0,0 0.0325,-3.37753 1.6875,-6.6875 1.65498,-3.30997 4.45833,-6.4375 11.4375,-6.4375 6.97917,0 9.78252,3.12753 11.4375,6.4375 1.65498,3.30997 1.6875,6.6875 1.6875,6.6875 l 0,13.125 -13.125,0 c 0,0 -2.83749,-0.0324 -5.8125,1.15625 -1.4875,0.59432 -3.07102,1.51953 -4.34375,3.03125 -1.27273,1.51172 -2.12799,3.62168 -2.15625,6.09375 -0.0284,2.48159 0.79099,4.63219 2.0625,6.15625 1.27151,1.52406 2.87534,2.43749 4.375,3.03125 2.99931,1.18751 5.875,1.15625 5.875,1.15625 0,0 2.09753,0.0469 4.03125,0.8125 0.96686,0.38281 1.81336,0.92055 2.375,1.59375 0.56164,0.6732 0.92253,1.45034 0.90625,2.875 -0.0164,1.43418 -0.39159,2.25196 -0.96875,2.9375 -0.57716,0.68554 -1.44956,1.21151 -2.40625,1.59375 -1.91338,0.76448 -3.9375,0.8125 -3.9375,0.8125 l -13.125,0 0,-13.125 c 0,0 0.0325,-4.43497 -2.21875,-8.9375 -2.25127,-4.50253 -7.26042,-9.1875 -15.90625,-9.1875 -8.64583,0 -13.65498,4.68497 -15.90625,9.1875 -2.25127,4.50253 -2.21875,8.9375 -2.21875,8.9375 0,0 -0.0325,4.43497 2.21875,8.9375 2.25127,4.50253 7.26042,9.1875 15.90625,9.1875 l 13.125,0 0,13.125 c 0,0 -0.0325,4.43497 2.21875,8.9375 2.25127,4.50253 7.26042,9.1875 15.90625,9.1875 8.64583,0 13.65498,-4.68497 15.90625,-9.1875 2.25127,-4.50253 2.21875,-8.9375 2.21875,-8.9375 0,0 -0.0446,-7.67854 -0.0446,-11.51786 0,-4.10714 -5,-4.10714 -5,0 0,3.83932 0.0446,11.51786 0.0446,11.51786 0,0 -0.0325,3.37753 -1.6875,6.6875 -1.65498,3.30997 -4.45833,6.4375 -11.4375,6.4375 -6.97917,0 -9.78252,-3.12753 -11.4375,-6.4375 -1.65498,-3.30997 -1.6875,-6.6875 -1.6875,-6.6875 l 0,-13.125 13.125,0 c 0,0 2.83749,0.0324 5.8125,-1.15625 1.48751,-0.59432 3.07102,-1.51953 4.34375,-3.03125 1.27273,-1.51172 2.128,-3.62168 2.15625,-6.09375 0.0284,-2.48159 -0.79099,-4.63219 -2.0625,-6.15625 -1.27151,-1.52406 -2.87534,-2.43749 -4.375,-3.03125 -2.99931,-1.18751 -5.875,-1.15625 -5.875,-1.15625 0,0 -2.09753,-0.0469 -4.03125,-0.8125 -0.96686,-0.38281 -1.81336,-0.92055 -2.375,-1.59375 -0.56164,-0.6732 -0.92253,-1.45034 -0.90625,-2.875 0.0164,-1.43418 0.39159,-2.25196 0.96875,-2.9375 0.57716,-0.68554 1.44956,-1.21151 2.40625,-1.59375 1.91338,-0.76448 3.9375,-0.8125 3.9375,-0.8125 l 13.125,0 0,13.125 c 0,8.64583 4.68497,13.65498 9.1875,15.90625 4.50253,2.25127 8.9375,2.21875 8.9375,2.21875 0,0 4.43497,0.0325 8.9375,-2.21875 4.50253,-2.25127 9.1875,-7.26042 9.1875,-15.90625 0,-8.64583 -4.68497,-13.65498 -9.1875,-15.90625 -4.50253,-2.25127 -8.9375,-2.21875 -8.9375,-2.21875 l -6.5625,0 m -55.93751,5 c 6.97917,0 9.78252,3.12753 11.4375,6.4375 1.65498,3.30997 1.6875,6.6875 1.6875,6.6875 l 0,13.125 -13.125,0 c -6.97917,0 -9.78252,-3.12753 -11.4375,-6.4375 -1.65498,-3.30997 -1.6875,-6.6875 -1.6875,-6.6875 0,0 0.0325,-3.37753 1.6875,-6.6875 1.65498,-3.30997 4.45833,-6.4375 11.4375,-6.4375 z m 49.375,0 c 0,0 4.375,0 6.5625,0 2.1875,0 6.5625,0 6.5625,0 0,0 3.37753,0.0325 6.6875,1.6875 3.30997,1.65498 6.4375,4.45833 6.4375,11.4375 0,6.97917 -3.12753,9.78252 -6.4375,11.4375 -3.30997,1.65498 -6.6875,1.6875 -6.6875,1.6875 0,0 -3.37753,-0.0325 -6.6875,-1.6875 -3.30997,-1.65498 -6.4375,-4.45833 -6.4375,-11.4375 z"
           id="path4459"
           inkscape:connector-curvature="0"
           sodipodi:nodetypes="ccsssscsscssscccsscsscssssscccssscssccssscsscssscccsscsscsssssccsscssscccccsscsscccssscsscc" />
        <path
           id="rect4481"
           d="m 166.53166,767.44421 10.24053,0 c 0.18882,0 0.34084,0.15202 0.34084,0.34084 l 0,0.97625 c 0,0.18882 -0.15202,0.34084 -0.34084,0.34084 l -10.24053,0 c -0.18882,0 -0.34083,-0.15202 -0.34083,-0.34084 l 0,-0.97625 c 0,-0.18882 0.15201,-0.34084 0.34083,-0.34084 z"
           style="color:#000000;display:inline;overflow:visible;visibility:visible;fill:#ffffff;fill-opacity:1;fill-rule:nonzero;stroke:none;stroke-width:4.4000001;marker:none;enable-background:accumulate"
           inkscape:connector-curvature="0" />
        <path
           id="rect4481-7"
           d="m -739.16392,205.96017 10.24052,0 c 0.18882,0 0.34084,0.15202 0.34084,0.34084 l 0,0.97625 c 0,0.18883 -0.15202,0.34084 -0.34084,0.34084 l -10.24052,0 c -0.18883,0 -0.34084,-0.15201 -0.34084,-0.34084 l 0,-0.97625 c 0,-0.18882 0.15201,-0.34084 0.34084,-0.34084 z"
           style="color:#000000;display:inline;overflow:visible;visibility:visible;fill:#ffffff;fill-opacity:1;fill-rule:nonzero;stroke:none;stroke-width:4.4000001;marker:none;enable-background:accumulate"
           transform="matrix(2.2369811e-4,-0.99999997,0.99999997,2.2369811e-4,0,0)"
           inkscape:connector-curvature="0" />
        <path
           style="fill:none;stroke:#ffffff;stroke-width:0.76521063;stroke-linecap:butt;stroke-linejoin:miter;stroke-miterlimit:4;stroke-dasharray:none;stroke-opacity:1"
           d="m 199.55306,714.79705 c 0,0 -0.96368,-2.77493 2.10646,-3.84113 3.07013,-1.06619 4.03381,1.70873 4.03381,1.70873"
           id="path4507"
           inkscape:connector-curvature="0" />
      </g>
    </g>
    <flowRoot
       xml:space="preserve"
       id="flowRoot3617"
       style="font-style:normal;font-weight:300;font-size:40px;line-height:125%;font-family:'Footlight MT Light';letter-spacing:0px;word-spacing:0px;writing-mode:tb-rl;fill:#000000;fill-opacity:1;stroke:none;stroke-width:1px;stroke-linecap:butt;stroke-linejoin:miter;stroke-opacity:1;-inkscape-font-specification:'Footlight MT Light,  Light';font-stretch:normal;font-variant:normal;"
       transform="matrix(0,-2.7746994,2.7746994,0,449.23226,2914.071)"><flowRegion
         id="flowRegion3619"><rect
           id="rect3621"
           width="220"
           height="840"
           x="700"
           y="80"
           style="writing-mode:tb-rl;-inkscape-font-specification:'Footlight MT Light,  Light';font-family:'Footlight MT Light';font-weight:300;font-style:normal;font-stretch:normal;font-variant:normal;" /></flowRegion><flowPara
         id="flowPara3623"
         style="writing-mode:lr-tb;-inkscape-font-specification:'Footlight MT Light,  Light';font-family:'Footlight MT Light';font-weight:300;font-style:normal;font-stretch:normal;font-variant:normal;" /></flowRoot>    <text
       xml:space="preserve"
       style="font-style:normal;font-variant:normal;font-weight:300;font-stretch:normal;font-size:186.21392822px;line-height:125%;font-family:'Footlight MT Light';-inkscape-font-specification:'Footlight MT Light,  Light';letter-spacing:0px;word-spacing:0px;fill:#000000;fill-opacity:1;stroke:none;stroke-width:1px;stroke-linecap:butt;stroke-linejoin:miter;stroke-opacity:1"
       x="79.365807"
       y="909.9762"
       id="text3625"
       sodipodi:linespacing="125%"
       transform="scale(0.93722214,1.0669829)"><tspan
         sodipodi:role="line"
         id="tspan3627"
         x="79.365807"
         y="909.9762"
         style="font-style:normal;font-variant:normal;font-weight:normal;font-stretch:normal;font-family:'Fjalla One';-inkscape-font-specification:'Fjalla One';fill:#ffffff">annotate me</tspan></text>
    <text
       xml:space="preserve"
       style="font-style:normal;font-weight:normal;font-size:40px;line-height:125%;font-family:sans-serif;letter-spacing:0px;word-spacing:0px;fill:#000000;fill-opacity:1;stroke:none;stroke-width:1px;stroke-linecap:butt;stroke-linejoin:miter;stroke-opacity:1"
       x="1623.5172"
       y="237.77518"
       id="text3629"
       sodipodi:linespacing="125%"><tspan
         sodipodi:role="line"
         id="tspan3631"
         x="1623.5172"
         y="237.77518" /></text>
    <flowRoot
       xml:space="preserve"
       id="flowRoot3645"
       style="font-style:normal;font-weight:normal;font-size:40px;line-height:125%;font-family:sans-serif;letter-spacing:0px;word-spacing:0px;fill:#000000;fill-opacity:1;stroke:none;stroke-width:1px;stroke-linecap:butt;stroke-linejoin:miter;stroke-opacity:1"
       transform="matrix(0,-1,1,0,44.548502,846.68582)"><flowRegion
         id="flowRegion3647"><rect
           id="rect3649"
           width="580"
           height="120"
           x="80"
           y="800" /></flowRegion><flowPara
         style="font-style:normal;font-variant:normal;font-weight:normal;font-stretch:normal;font-size:50px;line-height:150%;font-family:Fanwood;-inkscape-font-specification:Fanwood;text-align:center;text-anchor:middle;fill:#ffffff"
         id="flowPara3663">@apostilb ∙ apostilb.github.io</flowPara></flowRoot>  </g>
  <g
     inkscape:groupmode="layer"
     id="layer2"
     inkscape:label="Guide"
     style="display:inline"
     transform="translate(0,500)" />
</svg>
